<svg width="18" height="12" viewBox="0 0 18 12" fill="none" xmlns="http://www.w3.org/2000/svg">
<path d="M6.309 7.90733H0.9C0.405 7.90733 0 8.33647 0 8.86099C0 9.3855 0.405 9.81465 0.9 9.81465H6.309V11.5217C6.309 11.9509 6.795 12.1607 7.074 11.8555L9.576 9.19477C9.747 9.00404 9.747 8.7084 9.576 8.51767L7.074 5.85695C6.795 5.55178 6.309 5.77112 6.309 6.19073V7.90733ZM11.691 5.79973V4.09268H17.1C17.595 4.09268 18 3.66353 18 3.13901C18 2.6145 17.595 2.18535 17.1 2.18535H11.691V0.478294C11.691 0.0491464 11.205 -0.160659 10.926 0.144513L8.424 2.80523C8.253 2.99596 8.253 3.2916 8.424 3.48233L10.926 6.14305C10.9894 6.20895 11.0699 6.25348 11.1572 6.27102C11.2445 6.28855 11.3347 6.27832 11.4165 6.24161C11.4983 6.20489 11.568 6.14334 11.6169 6.0647C11.6657 5.98607 11.6915 5.89387 11.691 5.79973Z" fill="#1C1E33"/>
</svg>
