<svg width="18" height="18" viewBox="0 0 18 18" fill="none" xmlns="http://www.w3.org/2000/svg">
<path d="M6.309 10.9073H0.9C0.405 10.9073 0 11.3365 0 11.861C0 12.3855 0.405 12.8146 0.9 12.8146H6.309V14.5217C6.309 14.9509 6.795 15.1607 7.074 14.8555L9.576 12.1948C9.747 12.004 9.747 11.7084 9.576 11.5177L7.074 8.85695C6.795 8.55178 6.309 8.77112 6.309 9.19073V10.9073ZM11.691 8.79973V7.09268H17.1C17.595 7.09268 18 6.66353 18 6.13901C18 5.6145 17.595 5.18535 17.1 5.18535H11.691V3.47829C11.691 3.04915 11.205 2.83934 10.926 3.14451L8.424 5.80523C8.253 5.99596 8.253 6.2916 8.424 6.48233L10.926 9.14305C10.9894 9.20895 11.0699 9.25348 11.1572 9.27102C11.2445 9.28855 11.3347 9.27832 11.4165 9.24161C11.4983 9.20489 11.568 9.14334 11.6169 9.0647C11.6657 8.98607 11.6915 8.89387 11.691 8.79973Z" fill="#FBFBFB"/>
</svg>
