<svg width="32" height="32" viewBox="0 0 32 32" fill="none" xmlns="http://www.w3.org/2000/svg">
<path d="M21.4186 11.0874C21.4186 10.9499 21.3061 10.8374 21.1686 10.8374L19.1061 10.8468L15.9998 14.5499L12.8967 10.8499L10.8311 10.8405C10.6936 10.8405 10.5811 10.9499 10.5811 11.0905C10.5811 11.1499 10.6029 11.2062 10.6404 11.253L14.7061 16.0968L10.6404 20.9374C10.6027 20.9832 10.5817 21.0405 10.5811 21.0999C10.5811 21.2374 10.6936 21.3499 10.8311 21.3499L12.8967 21.3405L15.9998 17.6374L19.1029 21.3374L21.1654 21.3468C21.3029 21.3468 21.4154 21.2374 21.4154 21.0968C21.4154 21.0374 21.3936 20.9812 21.3561 20.9343L17.2967 16.0937L21.3623 11.2499C21.3998 11.2062 21.4186 11.1468 21.4186 11.0874Z" fill="#9D9D9D"/>
<path d="M16 2.03125C8.26875 2.03125 2 8.3 2 16.0312C2 23.7625 8.26875 30.0312 16 30.0312C23.7313 30.0312 30 23.7625 30 16.0312C30 8.3 23.7313 2.03125 16 2.03125ZM16 27.6562C9.58125 27.6562 4.375 22.45 4.375 16.0312C4.375 9.6125 9.58125 4.40625 16 4.40625C22.4188 4.40625 27.625 9.6125 27.625 16.0312C27.625 22.45 22.4188 27.6562 16 27.6562Z" fill="#9D9D9D"/>
</svg>
