<svg width="18" height="18" viewBox="0 0 18 18" fill="none" xmlns="http://www.w3.org/2000/svg">
<path d="M17.5645 3.68861C17.2852 2.96679 16.8825 2.31269 16.379 1.76291C15.875 1.2115 15.2808 0.773298 14.6288 0.472138C13.9526 0.158615 13.2274 -0.00186473 12.4952 1.63472e-05C11.468 1.63472e-05 10.4658 0.313989 9.59485 0.907048C9.38649 1.04892 9.18855 1.20474 9.00103 1.37452C8.81351 1.20474 8.61557 1.04892 8.40721 0.907048C7.53628 0.313989 6.53408 1.63472e-05 5.50688 1.63472e-05C4.76721 1.63472e-05 4.05046 0.158166 3.3733 0.472138C2.71906 0.774482 2.12941 1.20939 1.6231 1.76291C1.11887 2.31207 0.716078 2.96633 0.43755 3.68861C0.147934 4.43982 0 5.23754 0 6.05852C0 6.83299 0.141683 7.64002 0.422965 8.461C0.658409 9.14708 0.995947 9.85876 1.42725 10.5774C2.11066 11.7147 3.05035 12.9008 4.21715 14.1032C6.1507 16.0963 8.06551 17.4732 8.14677 17.529L8.64057 17.8825C8.85935 18.0383 9.14063 18.0383 9.35941 17.8825L9.85321 17.529C9.93447 17.4708 11.8472 16.0963 13.7828 14.1032C14.9496 12.9008 15.8893 11.7147 16.5727 10.5774C17.004 9.85876 17.3437 9.14708 17.577 8.461C17.8583 7.64002 18 6.83299 18 6.05852C18.0021 5.23754 17.8541 4.43982 17.5645 3.68861ZM9.00103 16.0429C9.00103 16.0429 1.58351 10.7379 1.58351 6.05852C1.58351 3.68861 3.33997 1.76757 5.50688 1.76757C7.02997 1.76757 8.35096 2.71646 9.00103 4.10259C9.65111 2.71646 10.9721 1.76757 12.4952 1.76757C14.6621 1.76757 16.4185 3.68861 16.4185 6.05852C16.4185 10.7379 9.00103 16.0429 9.00103 16.0429Z" fill="#FBFBFB"/>
</svg>
