<svg width="18" height="19" viewBox="0 0 18 19" fill="none" xmlns="http://www.w3.org/2000/svg">
<path d="M9 1.625C4.65117 1.625 1.125 5.15117 1.125 9.5C1.125 13.8488 4.65117 17.375 9 17.375C13.3488 17.375 16.875 13.8488 16.875 9.5C16.875 5.15117 13.3488 1.625 9 1.625ZM9 14.0703C8.61152 14.0703 8.29688 13.7557 8.29688 13.3672C8.29688 12.9787 8.61152 12.6641 9 12.6641C9.38848 12.6641 9.70312 12.9787 9.70312 13.3672C9.70312 13.7557 9.38848 14.0703 9 14.0703ZM10.1057 10.2119C9.94647 10.2734 9.8095 10.3814 9.71261 10.5219C9.61572 10.6624 9.56341 10.8288 9.5625 10.9994V11.3984C9.5625 11.4758 9.49922 11.5391 9.42188 11.5391H8.57812C8.50078 11.5391 8.4375 11.4758 8.4375 11.3984V11.0205C8.4375 10.6145 8.55527 10.2137 8.7873 9.87969C9.01406 9.55273 9.33047 9.30313 9.70312 9.16074C10.3008 8.93047 10.6875 8.42949 10.6875 7.88281C10.6875 7.10762 9.92988 6.47656 9 6.47656C8.07012 6.47656 7.3125 7.10762 7.3125 7.88281V8.01641C7.3125 8.09375 7.24922 8.15703 7.17188 8.15703H6.32812C6.25078 8.15703 6.1875 8.09375 6.1875 8.01641V7.88281C6.1875 7.19199 6.48984 6.54688 7.03828 6.06699C7.56562 5.60469 8.26172 5.35156 9 5.35156C9.73828 5.35156 10.4344 5.60645 10.9617 6.06699C11.5102 6.54688 11.8125 7.19199 11.8125 7.88281C11.8125 8.89883 11.1428 9.81289 10.1057 10.2119Z" fill="#0D0E17"/>
</svg>
