<svg width="64" height="64" viewBox="0 0 64 64" fill="none" xmlns="http://www.w3.org/2000/svg">
<path d="M39.0395 54.5859H21.3936V60.1712H39.0395V54.5859Z" fill="#1C2C3F"/>
<path d="M39.0395 0.306641H21.3936V5.89187H39.0395V0.306641Z" fill="#1C2C3F"/>
<path d="M5.87234 21.4092H0.287109V39.0584H5.87234V21.4092Z" fill="#1C2C3F"/>
<path d="M0.287109 46.0674V60.1704H14.386V54.5859H5.87316V46.0674H0.287109Z" fill="#1C2C3F"/>
<path d="M0.287109 0.306641V14.4104H5.87316V5.89269H14.386V0.306641H0.287109Z" fill="#1C2C3F"/>
<path d="M46.0479 0.306641V5.89269H54.5615V14.4104H60.1467V0.306641H46.0479Z" fill="#1C2C3F"/>
<path d="M60.1468 21.4092H54.5615V39.0584H60.1468V21.4092Z" fill="#1C2C3F"/>
<path d="M44.7178 44.7178V60.2242H49.9611V53.6684L59.883 63.5896L63.5896 59.883L53.6692 49.961H60.2242V44.7178H44.7178Z" fill="#66A75B"/>
</svg>
