<svg width="30" height="30" viewBox="0 0 30 30" fill="none" xmlns="http://www.w3.org/2000/svg">
<g clip-path="url(#clip0_619_350)">
<path d="M15.014 12.4317C16.4463 12.4265 17.5871 11.2759 17.5819 9.84047C17.5767 8.40446 16.4334 7.26185 15.0005 7.26062C13.5556 7.25909 12.4016 8.42287 12.4127 9.87177C12.4234 11.3019 13.5771 12.4369 15.014 12.4317Z" fill="white"/>
<path d="M15 0C6.7157 0 0 6.71601 0 15C0 23.284 6.7157 30 15 30C23.2843 30 30 23.284 30 15C30 6.71601 23.2843 0 15 0ZM15.0215 4.56153C17.9432 4.56951 20.2883 6.95939 20.2732 9.91335C20.2585 12.7992 17.8751 15.1381 14.9583 15.1283C12.0712 15.1185 9.70343 12.7249 9.72061 9.83325C9.73688 6.90997 12.1059 4.55356 15.0215 4.56153ZM20.9392 17.2042C20.2932 17.8674 19.5155 18.3474 18.6519 18.6823C17.8355 18.9987 16.9409 19.158 16.0551 19.2641C16.1893 19.4096 16.2522 19.4811 16.3357 19.5646C17.5375 20.7729 18.7452 21.975 19.943 23.1867C20.3512 23.5998 20.4362 24.1117 20.2116 24.5914C19.9663 25.1162 19.4161 25.4612 18.8762 25.424C18.5343 25.4004 18.2676 25.2307 18.031 24.9922C17.1238 24.0795 16.1994 23.183 15.3112 22.2531C15.0519 21.9824 14.9279 22.034 14.6992 22.2691C13.7868 23.2088 12.8593 24.1335 11.9266 25.0533C11.5077 25.4664 11.0093 25.5413 10.5232 25.305C10.0066 25.0551 9.67826 24.5276 9.70343 23.9969C9.72123 23.6391 9.89739 23.3647 10.1435 23.1198C11.3334 21.9324 12.5196 20.7413 13.7061 19.5511C13.785 19.4722 13.858 19.3884 13.9725 19.2657C12.3542 19.0966 10.8948 18.6982 9.64542 17.7213C9.49013 17.5998 9.33023 17.4826 9.18905 17.3463C8.64184 16.8212 8.58691 16.2193 9.01933 15.6C9.38977 15.0697 10.0109 14.9279 10.657 15.2326C10.7822 15.2913 10.9013 15.3655 11.0154 15.4441C13.3436 17.044 16.5422 17.0879 18.8796 15.5156C19.111 15.3388 19.3587 15.1933 19.6456 15.12C20.203 14.9764 20.7235 15.1817 21.0224 15.6697C21.3646 16.2273 21.3606 16.7712 20.9392 17.2042Z" fill="white"/>
</g>
<defs>
<clipPath id="clip0_619_350">
<rect width="30" height="30" fill="white"/>
</clipPath>
</defs>
</svg>
