<svg width="60" height="60" viewBox="0 0 60 60" fill="none" xmlns="http://www.w3.org/2000/svg">
<g clip-path="url(#clip0_4_241)">
<path d="M3.31925 38.6957C4.09429 38.78 4.96081 38.854 5.89384 38.9205C5.93066 35.5889 8.64948 32.8878 11.9901 32.8878C15.3541 32.8878 18.0906 35.625 18.0906 38.9878C18.0906 39.0966 18.0794 39.2008 18.0746 39.3086C25.8833 39.3769 34.7563 39.2305 42.0638 39.0634C42.0638 39.038 42.0597 39.0134 42.0597 38.9878C42.0597 35.625 44.796 32.8878 48.1598 32.8878C51.4429 32.8878 54.1198 35.4959 54.247 38.7478C55.4739 38.7161 56.348 38.6957 56.7478 38.6957C60.1652 38.6957 59.9983 38.7789 59.9983 35.528C59.9983 32.2777 59.165 32.7775 59.165 32.7775C59.165 27.4439 58.6651 29.7776 54.9143 26.0115C51.1626 22.2469 40.6603 17.1086 40.6603 17.1086C40.6603 17.1086 6.73615 14.1078 3.40233 17.6087C0.0684978 21.1095 0.484366 36.1121 0.484366 36.1121C-1.51585 39.1961 3.31925 38.6957 3.31925 38.6957Z" fill="#66A75B"/>
<path d="M11.9903 33.8879C9.17572 33.8879 6.89443 36.1686 6.89111 38.982C6.89111 38.9841 6.89111 38.985 6.89111 38.9865C6.89111 41.804 9.1747 44.0873 11.9914 44.0873C14.7018 44.0873 16.8967 41.9668 17.0595 39.2974C17.0656 39.1918 17.0906 39.0932 17.0906 38.9865C17.0907 36.1718 14.8069 33.8879 11.9903 33.8879Z" fill="#66A75B"/>
<path d="M48.1578 33.8879C45.3419 33.8879 43.0581 36.1718 43.0581 38.9876C43.0581 39.0064 43.0633 39.0218 43.0633 39.0397C43.0925 41.8311 45.3584 44.0885 48.157 44.0885C50.9739 44.0885 53.2577 41.805 53.2577 38.9876C53.2577 38.9147 53.2392 38.8472 53.2363 38.7747C53.1219 36.0594 50.9019 33.8879 48.1578 33.8879Z" fill="#66A75B"/>
</g>
<defs>
<clipPath id="clip0_4_241">
<rect width="60" height="60" fill="white"/>
</clipPath>
</defs>
</svg>
