<svg width="60" height="60" viewBox="0 0 60 60" fill="none" xmlns="http://www.w3.org/2000/svg">
<path d="M50.88 31.3549C49.2854 31.3549 47.7863 31.7559 46.4812 32.4542L40.8186 29.7847L41.295 29.0065C41.7663 29.1865 42.5918 29.4337 43.5674 29.4337C44.987 29.4337 46.2285 28.9271 47.2595 27.9301C48.7761 26.4626 49.9817 26.1969 50.779 26.0205C51.3264 25.8998 51.8439 25.7856 52.0483 25.2722C52.2845 24.6766 52.1973 23.9077 52.1046 23.4311L55.2047 22.3727L54.7407 21.0259C57.3786 20.3965 57.8139 20.0379 57.7531 19.5095C57.7316 19.3164 57.6939 19.0025 56.7632 18.8335C56.8989 18.6747 56.9493 18.5073 56.9062 18.317C56.7881 17.7867 56.0682 17.7867 55.7223 17.7867C55.2244 17.7867 54.6245 17.8491 54.3178 17.8853L53.2053 17.0485C54.154 15.5467 53.8296 14.6467 53.7866 14.5419L53.6683 14.2558L53.0568 14.2466C50.3262 14.2466 48.9056 15.0451 47.4021 15.8915C45.703 16.846 43.7795 17.9288 39.3827 18.2559C38.4242 18.3275 37.4682 18.3633 36.5399 18.3633C30.7126 18.3633 27.219 16.9435 26.5152 16.628C26.1141 15.9501 25.2538 15.6054 23.9549 15.6054C23.5584 15.6054 23.1525 15.6407 22.755 15.6905C23.1937 15.0453 23.6409 14.4055 24.1208 13.7861H29.881C31.7383 13.7861 31.7383 11 29.881 11H23.52C22.9107 11 22.5051 11.302 22.2961 11.7047C22.1096 11.8216 21.9398 11.973 21.7969 12.1544C21.1065 13.0319 20.472 13.9438 19.8688 14.8753C19.8661 14.8753 19.8632 14.8753 19.8605 14.8753C14.3689 15.3591 10.0973 19.7732 9.90688 19.9721L9.16496 20.7512H9.26756C6.62566 22.4244 4.12194 24.612 4.28716 25.222L4.39489 25.5788L4.90532 25.5684L5.00144 25.5258C5.49585 25.3036 6.46913 25.182 7.08277 25.1298C7.08473 25.1327 7.08742 25.1368 7.08937 25.1397C7.20848 25.3066 7.40622 25.4516 7.64334 25.5758C7.45648 26.1629 7.29127 26.8011 7.14795 27.4453L4.17893 27.4536C4.03402 27.0682 3.77489 26.7216 3.26862 26.7906C2.71478 26.866 2.27699 26.9253 2.55092 31.2992C2.609 32.2359 2.99054 32.8655 3.47419 33.2608C1.36216 34.8782 0 37.3752 0 40.1774C0 45.0424 4.09174 49 9.11996 49C14.1482 49 18.2399 45.0424 18.2399 40.1774C18.2399 38.6121 17.812 37.1429 17.0694 35.868C17.345 35.8225 17.6685 35.7916 18.0498 35.7916C19.1167 35.7916 20.3672 36.022 21.7668 36.4771C23.4933 37.0385 25.5004 37.3225 27.7326 37.3225C30.4663 37.3225 32.5352 36.8963 32.6214 36.8783L32.9501 36.7782L33.0045 36.4691C33.0432 36.4691 33.2568 36.49 33.7347 36.8911C34.3386 37.396 35.3632 37.6533 36.7819 37.6533C38.3045 37.6533 39.7679 37.3642 40.2134 37.2081C40.9313 36.9578 41.3679 35.7897 41.5836 35.0118L43.0723 35.6408C42.2446 36.9677 41.7601 38.517 41.7601 40.1764C41.7601 45.0404 45.8516 48.9994 50.88 48.9994C55.909 48.9994 60 45.0404 60 40.1764C60 35.3119 55.909 31.3549 50.88 31.3549ZM14.0978 32.7932L16.3337 31.013C17.8734 31.9172 19.5105 32.9421 20.5145 33.646C20.3589 33.6323 20.2023 33.6242 20.044 33.6242C18.5736 33.6242 17.2445 34.2442 16.3358 34.8023C15.7105 34.0186 14.9558 33.3375 14.0978 32.7932ZM13.2093 25.3983C13.6148 25.4967 14.0283 25.6376 14.3935 25.7728C14.7545 25.9062 15.0733 26.0241 15.3455 26.0866C15.501 26.7188 14.9505 29.3417 14.2992 31.5364L13.952 32.7084C13.5034 32.4361 13.0322 32.1978 12.5368 32.0034C12.7163 29.797 12.9986 27.6011 13.2093 25.3983ZM9.22464 26.0167C9.12473 26.1011 9.02396 26.1896 8.92222 26.2879C8.95304 26.1831 8.98838 26.094 9.02127 25.9927C9.08914 26.0018 9.1564 26.0096 9.22464 26.0167ZM10.154 27.0756C9.99749 28.5104 9.84084 29.9462 9.71073 31.3842C9.5147 31.3714 9.31868 31.3549 9.11996 31.3549C8.72424 31.3549 8.33756 31.3875 7.95554 31.435C8.24255 29.7308 8.84163 28.5689 9.46077 27.7962L9.97463 27.4381L9.77102 27.439C9.90138 27.301 10.0288 27.1822 10.154 27.0756ZM3.92531 28.8481L5.4989 28.8436L3.93313 29.9361C3.92335 29.5403 3.92164 29.1688 3.92531 28.8481ZM4.04148 31.5791L6.72655 29.7047C6.59717 30.528 6.5068 31.2414 6.45336 31.706C6.4514 31.7179 6.45042 31.7302 6.4492 31.7421C5.88288 31.9099 5.33944 32.1313 4.82583 32.3978C4.58395 32.3519 4.19067 32.1893 4.04148 31.5791Z" fill="#66A75B"/>
</svg>
