<svg width="60" height="60" viewBox="0 0 60 60" fill="none" xmlns="http://www.w3.org/2000/svg">
<path d="M38.1669 29.2939C38.5541 28.8685 38.6092 28.2854 38.2888 27.9905C37.9694 27.6965 37.3965 27.8026 37.0095 28.228L36.3438 28.9599C36.8179 29.2812 37.2611 29.579 37.6627 29.8476L38.1669 29.2939Z" fill="#66A75B"/>
<path d="M40.1007 30.2673C40.4879 29.8419 40.543 29.2588 40.2226 28.9639C39.9032 28.6699 39.3303 28.776 38.9433 29.2014L38.0938 30.1348C38.7005 30.5368 39.1679 30.8405 39.4331 31.0001L40.1007 30.2673Z" fill="#66A75B"/>
<path d="M42.04 31.2404C42.4272 30.815 42.4823 30.232 42.1619 29.937C41.8425 29.643 41.2696 29.7491 40.8826 30.1745L40.0156 31.1275C40.4647 31.1713 41.1488 31.2268 41.9955 31.288L42.04 31.2404Z" fill="#66A75B"/>
<path d="M31.4463 25.6116C32.8496 26.5782 34.4144 27.6509 35.8011 28.5911L36.7041 27.6829C36.7041 27.6829 34.79 26.3727 33.0974 25.2075C32.6008 25.2787 32.0541 25.409 31.4463 25.6116Z" fill="#66A75B"/>
<path d="M16.0332 41.6576C16.4126 40.8535 17.0842 39.0616 16.9157 37.6453C16.7309 37.4205 16.0555 36.7021 13.9177 35.0434C14.2236 35.754 14.3948 36.5375 14.3948 37.3609C14.3948 40.5867 11.7955 43.2011 8.58846 43.2011C5.38142 43.2011 2.78216 40.5867 2.78216 37.3609C2.78216 34.1351 5.38142 31.5207 8.58846 31.5207C8.8468 31.5207 9.09945 31.5431 9.34818 31.5762C8.1908 30.6475 7.23857 29.793 6.50784 28.988C2.77255 29.9244 0 33.3128 0 37.3611C0 42.1316 3.84471 45.9999 8.58864 45.9999C11.7754 45.9997 14.5508 44.2496 16.0332 41.6576Z" fill="#66A75B"/>
<path d="M9.09865 33.5191C8.93034 33.4967 8.7638 33.4675 8.58961 33.4675C6.45473 33.4675 4.71875 35.2138 4.71875 37.361C4.71875 39.5083 6.45491 41.2545 8.58961 41.2545C10.7243 41.2545 12.4605 39.5082 12.4605 37.361C12.4605 36.8402 12.355 36.3458 12.1692 35.8912L10.1196 38.5534C9.75091 39.0332 9.19241 39.3077 8.58766 39.3077C8.15602 39.3077 7.74662 39.1665 7.40412 38.9008C6.56024 38.2427 6.40545 37.0183 7.0586 36.1695L9.09865 33.5191Z" fill="#66A75B"/>
<path d="M50.9275 27.6274C47.9072 27.6274 45.2391 29.1176 43.5901 31.4012C45.0078 31.4975 46.621 31.6007 48.1695 31.6961C48.9881 31.2435 49.9279 30.9846 50.9275 30.9846C54.0939 30.9846 56.6612 33.567 56.6612 36.7517C56.6612 39.9365 54.0937 42.5189 50.9275 42.5189C49.169 42.5189 47.5985 41.7208 46.5465 40.468C45.2139 40.0709 43.6355 39.6377 42.2344 39.3515C43.3482 43.1233 46.8166 45.877 50.9275 45.877C55.9383 45.877 59.9999 41.7916 59.9999 36.7516C59.9999 31.7115 55.9374 27.6274 50.9275 27.6274Z" fill="#66A75B"/>
<path d="M8.58691 19.7965C9.8402 18.8135 11.5413 17.8235 13.9297 16.8578L15.5449 14L13.3143 15.0143C10.6414 16.6456 9.28846 18.4046 8.58691 19.7965Z" fill="#66A75B"/>
<path d="M53.7098 17.954C53.7089 17.954 53.7079 17.954 53.7079 17.954C53.0672 17.9219 52.4624 17.9062 51.8924 17.9062C48.902 17.9062 46.863 18.3228 45.4811 18.8436C44.2415 20.1343 41.0238 23.3319 39.4889 23.4078C39.4811 23.4078 39.3795 23.4107 39.3708 23.4107C37.5496 23.4107 31.4547 21.3617 31.1954 21.2741C31.0058 21.2098 30.8741 21.0346 30.8665 20.8342C30.8577 20.6327 30.9729 20.4478 31.1568 20.3669L33.5664 19.3109C32.9065 18.6392 32.5396 18.5623 32.5396 18.5623C29.3799 16.9289 24.7881 16.705 22.5052 16.705C21.641 16.705 21.1078 16.737 21.1078 16.737C21.1242 16.4187 20.7468 16.304 20.1904 16.304C18.7272 16.304 16.0273 17.1021 16.0273 17.1021C14.9414 17.4797 13.995 17.8623 13.1444 18.2459C10.5421 19.4179 8.95309 20.5996 7.90513 21.6994C7.0342 22.6134 6.52606 23.471 6.10705 24.2205C5.39483 25.4947 5.63378 26.761 7.64483 28.7768C8.40064 29.5351 9.41088 30.4023 10.7165 31.4156C10.8433 31.5138 10.9681 31.6112 11.1006 31.7125C11.1239 31.73 11.1442 31.7465 11.1664 31.764L10.9584 32.0346L10.8704 32.1484L10.5732 32.5328L10.34 32.8365L9.71103 33.6542L7.69643 36.2719C7.23383 36.8734 7.34325 37.7368 7.94036 38.2021C8.18998 38.3958 8.48426 38.4903 8.77748 38.4903C9.18581 38.4903 9.5904 38.3072 9.86031 37.9568L11.879 35.3355L12.5032 34.5247L12.7741 34.1732L13.0702 33.7877L13.1225 33.7195L13.3664 33.4031C13.3906 33.4207 13.41 33.4362 13.4332 33.4538C13.5696 33.556 13.6915 33.6494 13.8203 33.7467C15.5768 35.0793 16.5763 35.9377 17.1318 36.4702C17.8159 37.1271 17.8431 37.3014 17.8431 37.3014C18.2466 39.5119 16.795 42.3104 16.795 42.3104C16.795 42.3104 32.2381 42.3104 33.9721 42.3104C35.7061 42.3104 36.3915 41.337 36.3915 41.337C36.3915 41.337 37.5604 39.8768 38.5689 38.4169C38.7411 38.1667 39.1854 38.0625 39.8017 38.0625C40.3997 38.0625 41.1633 38.1628 41.9974 38.3185C43.1886 38.5414 44.5232 38.88 45.7532 39.2276C46.24 39.3648 46.7045 39.501 47.141 39.6335C48.6777 40.0977 49.806 40.4862 49.806 40.4862L49.8089 40.4678C50.1651 40.5768 50.5357 40.6517 50.9266 40.6517C53.0672 40.6517 54.8023 38.9065 54.8023 36.7534C54.8023 34.6929 53.2084 33.0235 51.1956 32.8823L51.2004 32.8551C51.2004 32.8551 50.0324 32.787 48.4289 32.6887C47.9683 32.6604 47.4728 32.6293 46.957 32.5973C45.6612 32.5155 44.2503 32.424 42.9893 32.3363C42.3235 32.2896 41.7022 32.2449 41.1623 32.203C40.118 32.1212 39.3807 32.0513 39.253 32.0083C39.2482 32.0063 39.2316 31.9967 39.2259 31.9936C39.1562 31.9645 38.9957 31.871 38.7712 31.7307C38.4459 31.5283 37.9912 31.2314 37.4348 30.8624C37.2983 30.7719 37.1492 30.6716 37.0032 30.5743C36.5909 30.2989 36.1497 30.002 35.6842 29.6866C35.4926 29.5573 35.3001 29.4268 35.1037 29.2935C32.4057 27.4616 29.3959 25.3776 29.3959 25.3776C30.3937 24.9308 31.2444 24.6301 31.9808 24.4393C32.7046 24.2525 33.3182 24.1716 33.8466 24.1716C35.6002 24.1716 36.4276 25.038 37.3489 25.6813C37.8424 26.0258 38.3602 26.1407 38.8304 26.1407C39.7711 26.1407 40.5239 25.6813 40.5239 25.6813C56.3625 18.0143 53.7922 17.954 53.7098 17.954ZM25.9158 32.7249L29.2981 29.6967C29.6988 29.3395 30.3094 29.3754 30.6645 29.7765C31.0196 30.1784 30.9848 30.7937 30.5852 31.1509L27.5881 33.8344L25.9158 32.7249ZM26.3948 27.7499C26.7944 27.3927 27.4061 27.4287 27.7612 27.8297C28.1163 28.2317 28.0814 28.847 27.6818 29.2042L24.6723 31.8995L23 30.7898L26.3948 27.7499ZM33.4883 33.0978L30.5028 35.7708L28.8305 34.661L32.2002 31.6436C32.6008 31.2864 33.2104 31.3223 33.5666 31.7234C33.9228 32.1253 33.8879 32.7404 33.4883 33.0978Z" fill="#66A75B"/>
<path d="M39.3721 22.9248L39.373 22.92L39.4417 22.4363C39.7428 22.4216 40.2256 22.1589 40.8023 21.7482C41.2677 21.4162 41.7942 20.9871 42.3351 20.513C42.3429 20.5062 42.3506 20.4994 42.3573 20.4935C42.4657 20.399 42.5731 20.3047 42.6815 20.2073C42.6427 20.217 42.5963 20.2268 42.5392 20.2345C42.3776 20.2569 42.1278 20.2705 41.7136 20.2705C41.7088 20.2705 41.7058 20.2705 41.701 20.2705C40.1061 20.2705 36.9175 20.0806 35.3575 19.9804C35.0953 19.9639 34.8843 19.9502 34.7295 19.9396C34.6734 19.9357 34.6191 19.9317 34.5795 19.9299L34.2283 20.0837L32.7109 20.7494C33.4397 20.982 34.3145 21.2517 35.1942 21.5068C35.4226 21.573 35.647 21.6361 35.8735 21.6995C36.5829 21.8971 37.2641 22.0733 37.8602 22.2056C38.316 22.3069 38.708 22.3769 39.0215 22.41C39.1453 22.4236 39.277 22.4402 39.3709 22.4402V22.922V22.9248H39.3721Z" fill="#66A75B"/>
</svg>
