<svg width="60" height="60" viewBox="0 0 60 60" fill="none" xmlns="http://www.w3.org/2000/svg">
<path d="M43.5366 12.8084C45.1574 13.5447 46.4564 14.8437 47.1928 16.4646C47.2437 16.5768 47.3162 16.6778 47.4062 16.7619C47.4961 16.8461 47.6018 16.9117 47.7171 16.955C47.8324 16.9983 47.9551 17.0185 48.0782 17.0143C48.2013 17.0102 48.3224 16.9819 48.4345 16.931C48.5467 16.8801 48.6477 16.8076 48.7319 16.7176C48.816 16.6277 48.8816 16.522 48.9249 16.4067C48.9682 16.2914 48.9884 16.1687 48.9843 16.0456C48.9802 15.9225 48.9519 15.8014 48.9009 15.6893C47.9762 13.6525 46.344 12.0203 44.3072 11.0955C44.0809 10.9935 43.8234 10.9854 43.5912 11.0729C43.359 11.1605 43.1709 11.3366 43.0683 11.5625C42.9656 11.7885 42.9568 12.046 43.0437 12.2785C43.1306 12.5109 43.3062 12.6995 43.5319 12.8027L43.5366 12.8084Z" fill="#66A75B"/>
<path d="M44.4545 8.22772C46.1712 8.77258 47.732 9.72164 49.0056 10.9951C50.2792 12.2686 51.2285 13.8292 51.7736 15.5458C51.8092 15.6651 51.8683 15.776 51.9472 15.8722C52.0262 15.9684 52.1235 16.0479 52.2335 16.1061C52.3435 16.1642 52.464 16.1999 52.588 16.2111C52.7119 16.2222 52.8368 16.2085 52.9554 16.1709C53.0741 16.1332 53.184 16.0724 53.2788 15.9918C53.3737 15.9112 53.4515 15.8125 53.5078 15.7016C53.5641 15.5906 53.5978 15.4695 53.6068 15.3454C53.6159 15.2213 53.6001 15.0966 53.5605 14.9787C52.9241 12.9761 51.8164 11.1555 50.3306 9.66972C48.8448 8.18393 47.0242 7.07632 45.0217 6.4399C44.7846 6.36469 44.5274 6.38674 44.3066 6.50119C44.0857 6.61565 43.9194 6.81314 43.8442 7.05022C43.769 7.2873 43.791 7.54454 43.9055 7.76537C44.0199 7.98619 44.2174 8.1525 44.4545 8.22772Z" fill="#66A75B"/>
<path d="M45.3093 3.72299C47.9682 4.36851 50.3981 5.73341 52.3328 7.66816C54.2676 9.6029 55.6325 12.0328 56.278 14.6917C56.3279 14.8953 56.4446 15.0763 56.6094 15.2058C56.7743 15.3353 56.9777 15.4058 57.1874 15.4061C57.2628 15.4061 57.338 15.3973 57.4114 15.3799C57.6528 15.3206 57.8608 15.168 57.9897 14.9554C58.1185 14.7429 58.1577 14.4879 58.0986 14.2464C57.3727 11.254 55.8369 8.51927 53.6597 6.34188C51.4825 4.16449 48.7478 2.62853 45.7555 1.90237C45.6349 1.86989 45.509 1.86184 45.3853 1.87869C45.2615 1.89554 45.1423 1.93695 45.0348 2.00049C44.9273 2.06403 44.8335 2.14841 44.7591 2.24869C44.6846 2.34897 44.6309 2.46312 44.6012 2.58443C44.5714 2.70575 44.5662 2.83178 44.5859 2.95513C44.6055 3.07848 44.6497 3.19666 44.7156 3.30272C44.7816 3.40879 44.8681 3.5006 44.97 3.57278C45.072 3.64495 45.1873 3.69602 45.3093 3.72299Z" fill="#66A75B"/>
<path d="M9.375 30H18.75V41.25H9.375V30Z" fill="#66A75B"/>
<path d="M4.6875 24.375H7.5V27.1875C7.5 27.4361 7.59877 27.6746 7.77459 27.8504C7.9504 28.0262 8.18886 28.125 8.4375 28.125H19.6875C19.9361 28.125 20.1746 28.0262 20.3504 27.8504C20.5262 27.6746 20.625 27.4361 20.625 27.1875V24.375H23.4375C23.6861 24.375 23.9246 24.2762 24.1004 24.1004C24.2762 23.9246 24.375 23.6861 24.375 23.4375V14.0625C24.375 13.8139 24.2762 13.5754 24.1004 13.3996C23.9246 13.2238 23.6861 13.125 23.4375 13.125H8.4375C7.1943 13.125 6.00201 13.6189 5.12294 14.4979C4.24386 15.377 3.75 16.5693 3.75 17.8125V23.4375C3.75 23.6861 3.84877 23.9246 4.02459 24.1004C4.2004 24.2762 4.43886 24.375 4.6875 24.375Z" fill="#66A75B"/>
<path d="M24.375 50.625C24.375 49.6304 23.9799 48.6766 23.2766 47.9734C22.5734 47.2701 21.6196 46.875 20.625 46.875V44.0625C20.625 43.8139 20.5262 43.5754 20.3504 43.3996C20.1746 43.2238 19.9361 43.125 19.6875 43.125H8.4375C8.18886 43.125 7.9504 43.2238 7.77459 43.3996C7.59877 43.5754 7.5 43.8139 7.5 44.0625V46.875C6.50544 46.875 5.55161 47.2701 4.84835 47.9734C4.14509 48.6766 3.75 49.6304 3.75 50.625V54.375H24.375V50.625Z" fill="#66A75B"/>
<path d="M33.75 18.75C33.7509 17.7763 33.9704 16.8151 34.3922 15.9375H26.25V21.5625H34.3922C33.9703 20.6849 33.7508 19.7238 33.75 18.75Z" fill="#66A75B"/>
<path d="M40.3125 23.4375C42.9013 23.4375 45 21.3388 45 18.75C45 16.1612 42.9013 14.0625 40.3125 14.0625C37.7237 14.0625 35.625 16.1612 35.625 18.75C35.625 21.3388 37.7237 23.4375 40.3125 23.4375Z" fill="#66A75B"/>
<path d="M30.2745 33.0875C30.0987 33.2633 30 33.5017 30 33.7503C30 33.9989 30.0987 34.2373 30.2745 34.4132L34.0245 38.1632C34.111 38.2527 34.2144 38.3241 34.3288 38.3732C34.4432 38.4224 34.5662 38.4482 34.6907 38.4493C34.8152 38.4504 34.9386 38.4267 35.0538 38.3795C35.169 38.3324 35.2737 38.2628 35.3617 38.1748C35.4498 38.0867 35.5194 37.9821 35.5665 37.8669C35.6136 37.7516 35.6374 37.6282 35.6363 37.5037C35.6352 37.3792 35.6093 37.2562 35.5602 37.1418C35.5111 37.0275 35.4397 36.924 35.3501 36.8375L32.2629 33.7503L35.0754 30.9378H45.5492L48.3617 33.7503L45.2745 36.8375C45.1849 36.924 45.1135 37.0275 45.0644 37.1418C45.0153 37.2562 44.9894 37.3792 44.9883 37.5037C44.9872 37.6282 45.011 37.7516 45.0581 37.8669C45.1052 37.9821 45.1748 38.0867 45.2629 38.1748C45.3509 38.2628 45.4556 38.3324 45.5708 38.3795C45.686 38.4267 45.8094 38.4504 45.9339 38.4493C46.0584 38.4482 46.1814 38.4224 46.2958 38.3732C46.4102 38.3241 46.5136 38.2527 46.6001 38.1632L50.3501 34.4132C50.5259 34.2373 50.6246 33.9989 50.6246 33.7503C50.6246 33.5017 50.5259 33.2633 50.3501 33.0875L46.6001 29.3375C46.4243 29.1617 46.1859 29.0629 45.9373 29.0628H43.1248V24.6707C42.2475 25.0933 41.2861 25.3128 40.3123 25.3128C39.3385 25.3128 38.3771 25.0933 37.4998 24.6707V29.0628H34.6873C34.4387 29.0629 34.2003 29.1617 34.0245 29.3375L30.2745 33.0875Z" fill="#66A75B"/>
<path d="M44.0625 32.8125H36.5625C36.3139 32.8125 36.0754 32.9113 35.8996 33.0871C35.7238 33.2629 35.625 33.5014 35.625 33.75V41.25C35.625 41.4986 35.7238 41.7371 35.8996 41.9129C36.0754 42.0887 36.3139 42.1875 36.5625 42.1875H44.0625C44.3111 42.1875 44.5496 42.0887 44.7254 41.9129C44.9012 41.7371 45 41.4986 45 41.25V33.75C45 33.5014 44.9012 33.2629 44.7254 33.0871C44.5496 32.9113 44.3111 32.8125 44.0625 32.8125Z" fill="#66A75B"/>
<path d="M57.1875 56.25H2.8125C2.56386 56.25 2.3254 56.3488 2.14959 56.5246C1.97377 56.7004 1.875 56.9389 1.875 57.1875C1.875 57.4361 1.97377 57.6746 2.14959 57.8504C2.3254 58.0262 2.56386 58.125 2.8125 58.125H57.1875C57.4361 58.125 57.6746 58.0262 57.8504 57.8504C58.0262 57.6746 58.125 57.4361 58.125 57.1875C58.125 56.9389 58.0262 56.7004 57.8504 56.5246C57.6746 56.3488 57.4361 56.25 57.1875 56.25Z" fill="#66A75B"/>
</svg>
