<svg width="60" height="60" viewBox="0 0 60 60" fill="none" xmlns="http://www.w3.org/2000/svg">
<g clip-path="url(#clip0_4_235)">
<path d="M57.8282 37.685C57.882 36.055 57.7621 34.6216 57.5207 33.346C58.2787 32.897 58.7938 32.0689 58.7938 31.1082C58.7938 29.6748 57.6592 28.5123 56.2593 28.5123C56.0469 28.5123 55.8453 28.5461 55.6501 28.5962C52.1376 23.3801 45.6376 23.5635 45.6376 23.5635C43.5855 5.94121 22.946 9.44166 22.946 9.44166V13.331C18.2966 13.4313 13.6531 13.6468 9.02485 14.2291C8.20223 14.3324 7.62991 14.8115 7.57665 15.6775C7.38932 18.7279 6.95095 21.6941 6.26818 24.6574C3.70031 25.0421 3.7869 26.3165 3.39256 28.8743C3.28038 29.6033 3.16882 30.4387 3.06255 31.2882H2.42701C1.89442 31.2882 1.46158 31.721 1.46158 32.2539V35.1507C1.46158 35.6836 1.89442 36.1163 2.42701 36.1163H2.52283C2.46293 36.7103 2.42701 37.0821 2.42701 37.0821C-0.831874 37.5651 0.133676 41.0653 0.133676 41.0653H5.75047C6.58994 37.0046 10.1924 33.9437 14.497 33.9437C18.8016 33.9437 22.4043 37.0047 23.2435 41.0653H36.6482C37.4877 37.0046 41.0903 33.9437 45.395 33.9437C49.6996 33.9437 53.3018 37.0047 54.1411 41.0653H57.5856C57.5856 41.0653 60 41.0653 60 39.1341C60 37.2029 57.8282 37.685 57.8282 37.685ZM22.946 23.5633C22.946 23.5633 14.2843 24.4296 9.26642 24.5205C9.80074 22.0281 10.1566 19.5322 10.3654 16.9829C14.5495 16.5186 18.7447 16.3187 22.9461 16.2274V23.5633H22.946Z" fill="#66A75B"/>
<path d="M22.4627 42.8754C22.4627 42.2519 22.3835 41.6476 22.2483 41.065C21.4279 37.5392 18.2722 34.9089 14.4965 34.9089C10.721 34.9089 7.56532 37.5392 6.74491 41.065C6.60961 41.6475 6.53027 42.2518 6.53027 42.8754C6.53027 47.2752 10.0973 50.8415 14.4965 50.8415C18.896 50.8415 22.4627 47.2752 22.4627 42.8754Z" fill="#66A75B"/>
<path d="M45.3955 50.8415C49.7949 50.8415 53.3621 47.2752 53.3621 42.8754C53.3621 42.2519 53.2827 41.6476 53.1466 41.065C52.3265 37.5392 49.1714 34.9089 45.3955 34.9089C41.6199 34.9089 38.4638 37.5392 37.6436 41.065C37.5089 41.6475 37.4297 42.2518 37.4297 42.8754C37.4296 47.2752 40.9957 50.8415 45.3955 50.8415Z" fill="#66A75B"/>
</g>
<defs>
<clipPath id="clip0_4_235">
<rect width="60" height="60" fill="white"/>
</clipPath>
</defs>
</svg>
