<svg width="60" height="60" viewBox="0 0 60 60" fill="none" xmlns="http://www.w3.org/2000/svg">
<path d="M35.8685 16.0447H33.142C32.7877 16.0447 32.5005 15.7575 32.5005 15.4032C32.5005 15.0489 32.7877 14.7617 33.142 14.7617H35.8685C36.2228 14.7617 36.51 15.0489 36.51 15.4032C36.51 15.7575 36.2228 16.0447 35.8685 16.0447Z" fill="#66A75B"/>
<path d="M44.0639 25.4094C35.2774 25.4094 28.1289 31.7535 28.1289 40.5403C28.1289 44.7514 29.8001 48.5995 32.8344 51.3756C35.7816 54.072 39.7695 55.557 44.0639 55.557C48.3584 55.557 52.3466 54.072 55.2936 51.3756C58.3279 48.5993 59.999 44.7514 59.999 40.5403C59.999 31.7537 52.8505 25.4094 44.0639 25.4094ZM44.0639 47.3291C40.3207 47.3291 37.2751 44.2836 37.2751 40.5403C37.2751 36.7968 40.3207 33.7514 44.0639 33.7514C47.8072 33.7514 50.8526 36.7968 50.8526 40.5403C50.8525 44.2836 47.8072 47.3291 44.0639 47.3291Z" fill="#66A75B"/>
<path d="M11.2813 33.6436C5.06069 33.6436 0 38.7045 0 44.925C0 47.9068 1.18324 50.6313 3.33171 52.597C5.41836 54.506 8.24151 55.5574 11.2814 55.5574C14.3214 55.5574 17.1447 54.506 19.2312 52.597C21.3796 50.6313 22.5629 47.9065 22.5629 44.925C22.5628 38.7045 17.5019 33.6436 11.2813 33.6436ZM11.2813 49.709C8.64358 49.709 6.49769 47.5629 6.49769 44.9251C6.49769 42.2873 8.64358 40.1413 11.2813 40.1413C13.9189 40.1413 16.0649 42.2873 16.0649 44.9251C16.0649 47.5629 13.9189 49.709 11.2813 49.709Z" fill="#66A75B"/>
<path d="M31.6577 28.4515C34.9294 25.4079 39.3351 23.7317 44.063 23.7317C47.2485 23.7317 50.2872 24.4934 52.9315 25.9207C52.9448 25.9278 52.9579 25.9321 52.971 25.9378C53.214 26.1124 53.5172 26.2047 53.8381 26.1762C54.5481 26.1129 55.0723 25.486 55.009 24.7759C54.997 24.6408 53.802 11.2314 53.5758 8.60112C53.2181 4.44254 50.2137 4.44254 49.0828 4.44254H31.6583C30.1033 4.43944 27.2209 4.44086 26.3308 8.84856C25.8298 11.3289 24.7285 16.549 23.8783 20.5353C19.4042 20.5353 15.2109 20.5353 11.9698 20.5353V14.0063C11.9698 13.0544 11.198 12.2828 10.2462 12.2828C9.2944 12.2828 8.52265 13.0545 8.52265 14.0063V20.5353C6.86893 20.5353 5.82096 20.5353 5.61586 20.5353C0.623581 20.5353 -0.918878 31.2582 1.83044 36.0659C4.19641 33.5437 7.55691 31.9651 11.2798 31.9651C17.7982 31.9651 23.2071 36.8028 24.1069 43.0764H26.6373C26.5138 42.2477 26.4504 41.401 26.4504 40.5404C26.4503 35.869 28.2997 31.5757 31.6577 28.4515ZM51.0039 8.82249C51.1458 10.4709 51.6669 16.34 52.0399 20.5354C49.998 20.5354 46.0641 20.5354 41.3131 20.5354V7.02407H49.083C50.3393 7.02407 50.8551 7.09312 51.0039 8.82249ZM28.8612 9.35957C29.3331 7.02329 30.2117 7.02497 31.6574 7.02407H39.2479V20.5353C35.2477 20.5353 30.8163 20.5353 26.5173 20.5353C27.4137 16.3223 28.5053 11.1215 28.8612 9.35957Z" fill="#66A75B"/>
</svg>
