<svg width="60" height="60" viewBox="0 0 60 60" fill="none" xmlns="http://www.w3.org/2000/svg">
<path d="M0.891305 35.9603C0.891305 35.9603 2.19071 36.893 1.51059 37.3285C0.830334 37.7628 0.892439 38.3852 0.892439 38.3852L4.35958 38.2968C4.08194 37.6561 3.92158 36.9525 3.92158 36.2092C3.92158 33.3272 6.25031 30.984 9.11341 30.984C11.9763 30.984 14.3053 33.3271 14.3053 36.2092C14.3053 36.8895 14.1657 37.5377 13.9295 38.1343C20.4059 38.0976 33.0039 38.0246 41.1431 37.9701C40.9472 37.417 40.8205 36.8301 40.8205 36.2098C40.8205 33.2951 43.177 30.9225 46.0732 30.9225C48.9703 30.9225 51.3268 33.2951 51.3268 36.2098C51.3268 36.731 51.2275 37.2259 51.0876 37.7028C54.2388 37.3589 58.929 36.7075 58.929 36.7075L58.1874 36.0028L59.5485 34.8821C60.9499 33.514 58.6413 32.3942 58.6413 32.3942C59.4652 30.0303 58.1057 28.4132 58.1057 28.4132C59.0956 27.832 58.0649 27.2518 58.0649 27.2518L59.0539 25.9659L55.2217 24.929C52.8732 24.722 50.648 26.2566 50.648 26.2566C50.648 26.2566 42.9327 21.6885 41.2794 21.5399C41.4491 21.4116 41.6222 21.2935 41.7872 21.154C42.7686 20.3308 41.3611 18.9309 40.3888 19.7467C39.4296 20.552 38.317 21.1381 37.1593 21.5947C32.3963 21.7304 25.1201 22.0667 23.9058 22.6488C22.1753 23.4777 16.6123 27.5832 16.6123 27.5832C3.67429 28.4542 0.853765 31.233 0.853765 31.233L1.29996 33.3896C-1.36373 34.6332 0.891305 35.9603 0.891305 35.9603Z" fill="#66A75B"/>
<path d="M9.11408 31.9795C6.79291 31.9795 4.91113 33.873 4.91113 36.2093C4.91113 36.9614 5.12264 37.6573 5.4639 38.2684C6.18409 39.5583 7.5398 40.4388 9.11408 40.4388C10.7399 40.4388 12.1345 39.4999 12.8322 38.1404C13.131 37.5592 13.317 36.9089 13.317 36.2093C13.317 33.8729 11.4354 31.9795 9.11408 31.9795Z" fill="#66A75B"/>
<path d="M46.0763 31.9172C43.7209 31.9172 41.8125 33.8397 41.8125 36.2091C41.8125 36.8351 41.9523 37.426 42.1922 37.9624C42.8596 39.4561 44.3437 40.5 46.0763 40.5C47.8689 40.5 49.3965 39.3849 50.027 37.8095C50.2259 37.3142 50.3409 36.7756 50.3409 36.2091C50.3421 33.8386 48.4318 31.9172 46.0763 31.9172Z" fill="#66A75B"/>
</svg>
