<svg width="60" height="22" viewBox="0 0 60 22" fill="none" xmlns="http://www.w3.org/2000/svg">
<path d="M59.2774 16.1223C60.2559 14.8582 60.0111 11.9231 59.8477 10.7815C59.6844 9.63978 58.747 10.1702 58.7879 9.39526C58.8289 8.62044 58.9103 6.37887 58.5023 6.09323C58.0942 5.80758 57.7276 5.64494 57.7276 5.64494C57.1573 4.46334 53.2836 1.60922 53.2836 1.60922V1.16093C47.0467 0.468495 33.0948 -0.479553 29.1197 0.468495C25.1447 1.41617 16.0339 6.33862 16.0339 6.33862C6.52621 6.52058 1.90898 9.60924 1.90898 9.60924C1.90898 9.60924 2.03136 10.0984 0.961301 11.0769C-0.109258 12.0557 0.0034063 13.9616 0.0034063 13.9616L0.65621 16.9783C0.989591 17.2559 5.34922 18.6893 6.60473 18.5365C6.47761 18.0569 6.40395 17.5572 6.40395 17.0382C6.40395 13.8024 9.03772 11.168 12.2743 11.168C15.5109 11.168 18.1444 13.8024 18.1444 17.0382C18.1444 17.1845 18.1325 17.326 18.123 17.4692C21.9346 17.4777 34.6226 17.5067 43.6059 17.5027C43.5945 17.3489 43.582 17.195 43.582 17.0382C43.582 13.8024 46.216 11.168 49.4525 11.168C52.6893 11.168 55.3225 13.8024 55.3225 17.0382C55.3225 17.0985 55.3159 17.1551 55.314 17.2139C57.6682 16.8235 59.2774 16.1223 59.2774 16.1223Z" fill="#66A75B"/>
<path d="M12.2749 12.1462C9.57316 12.1462 7.38281 14.3373 7.38281 17.0383C7.38281 17.4538 7.45024 17.8513 7.54819 18.2374C8.08509 20.3565 9.98942 21.9303 12.2749 21.9303C14.8292 21.9303 16.9034 19.9649 17.1236 17.4672C17.1366 17.3229 17.1665 17.1855 17.1665 17.0383C17.1665 14.3373 14.9763 12.1462 12.2749 12.1462Z" fill="#66A75B"/>
<path d="M49.4545 12.1462C46.7536 12.1462 44.5625 14.3373 44.5625 17.0383C44.5625 17.197 44.595 17.347 44.6095 17.5018C44.8462 19.982 46.9119 21.9303 49.4545 21.9303C52.0496 21.9303 54.1493 19.9056 54.3146 17.352C54.3225 17.2455 54.3466 17.1452 54.3466 17.0383C54.3466 14.3373 52.1565 12.1462 49.4545 12.1462Z" fill="#66A75B"/>
</svg>
