<svg width="60" height="60" viewBox="0 0 60 60" fill="none" xmlns="http://www.w3.org/2000/svg">
<g clip-path="url(#clip0_4_220)">
<path d="M43.2315 25.9228C43.2315 25.9228 38.7778 22.2456 33.875 20.9385C28.9719 19.6314 17.9405 20.4893 15.8156 20.9385C13.6908 21.3877 6.58171 24.6157 6.58171 24.6157C6.58171 24.6157 0.127653 23.5939 0.904174 26.0454C1.68088 28.4968 0.536534 27.8839 0.0873386 30.5806C-0.361856 33.2771 1.06784 34.7067 1.06784 34.7067L2.29355 34.9107L2.45722 35.4929C4.20481 35.4929 5.69201 35.5685 6.94547 35.6787C6.94066 35.5868 6.9316 35.4949 6.9316 35.401C6.9316 32.4613 9.3233 30.0691 12.2639 30.0691C15.2044 30.0691 17.5961 32.4602 17.5961 35.401C17.5961 35.7945 17.5501 36.1756 17.4697 36.5453H43.3414C43.26 36.1768 43.2149 35.7945 43.2149 35.401C43.2149 32.4613 45.606 30.0691 48.5468 30.0691C51.4873 30.0691 53.8796 32.4602 53.8796 35.401C53.8796 35.7945 53.8335 36.1756 53.7531 36.5453H57.5767C58.0259 35.8099 59.0064 35.7688 59.0064 35.7688C60.028 35.0333 60.028 32.1732 59.9869 31.5602C59.9459 30.9471 58.5574 29.5176 58.5574 29.5176C54.9581 27.2308 43.2315 25.9228 43.2315 25.9228Z" fill="#66A75B"/>
<path d="M12.2629 31.0518C9.85937 31.0518 7.91113 32.9996 7.91113 35.4032C7.91113 35.5322 7.9385 35.6539 7.9496 35.7804C8.14341 38.0038 9.98919 39.7544 12.2631 39.7544C14.2672 39.7544 15.9384 38.3907 16.4434 36.5464C16.5435 36.1797 16.6149 35.8013 16.6149 35.4021C16.6136 32.9985 14.6664 31.0518 12.2629 31.0518Z" fill="#66A75B"/>
<path d="M48.5426 31.0518C46.1389 31.0518 44.1914 32.9996 44.1914 35.4032C44.1914 35.8013 44.2613 36.1806 44.3628 36.5475C44.8675 38.392 46.5385 39.7555 48.5428 39.7555C50.5471 39.7555 52.218 38.392 52.7236 36.5475C52.823 36.1808 52.895 35.8026 52.895 35.4032C52.8939 32.9985 50.9462 31.0518 48.5426 31.0518Z" fill="#66A75B"/>
</g>
<defs>
<clipPath id="clip0_4_220">
<rect width="60" height="60" fill="white"/>
</clipPath>
</defs>
</svg>
