<svg width="60" height="60" viewBox="0 0 60 60" fill="none" xmlns="http://www.w3.org/2000/svg">
<path d="M59.0608 39.0959C62.5106 25.2113 55.3344 25.729 55.3344 25.729C55.3344 25.729 53.2651 18.9234 53.2651 16.45C53.2651 13.9761 52.2988 14.018 52.2988 14.018H48.022C40.1378 13.6835 37.4153 18.9811 36.7656 24.7912V31.4846C37.1565 35.7392 38.0862 39.097 38.0862 39.097H42.1557C42.6854 35.8764 45.4811 33.4091 48.8485 33.4091C52.2171 33.4091 55.0127 35.8764 55.5423 39.097H59.0608V39.0959Z" fill="#66A75B"/>
<path d="M33.948 41.5793V38.3953H23.9297C24.0893 38.9711 24.1806 39.573 24.1806 40.1993C24.1806 40.672 24.1321 41.133 24.0393 41.5793H33.948Z" fill="#66A75B"/>
<path d="M5.38281 38.3955V41.5796H10.7381C10.6457 41.1332 10.5966 40.6723 10.5966 40.1996C10.5966 39.5732 10.6885 38.9714 10.8478 38.3955H5.38281Z" fill="#66A75B"/>
<path d="M11.7573 36.4045C12.613 35.1392 13.8825 34.1767 15.3702 33.7136C16.0071 33.5153 16.6854 33.408 17.3873 33.408C18.0897 33.408 18.7662 33.5153 19.4046 33.7136C20.8924 34.1787 22.1619 35.1392 23.0171 36.4045H33.9466H34.7751V14.0171H0V36.4045H5.38157H11.7573Z" fill="#66A75B"/>
<path d="M22.4603 37.4003C22.2633 37.043 22.0265 36.7105 21.7606 36.4045C20.6977 35.1801 19.1344 34.4038 17.3862 34.4038C15.6379 34.4038 14.0744 35.1821 13.0121 36.4045C12.746 36.7105 12.5091 37.0428 12.3118 37.4003C12.1377 37.7148 11.9933 38.0488 11.8795 38.3956C11.6932 38.9638 11.5898 39.5697 11.5898 40.1996C11.5898 40.6754 11.6539 41.137 11.7623 41.5797C12.3827 44.1125 14.6608 45.9952 17.3862 45.9952C20.1115 45.9952 22.3896 44.1124 23.01 41.5797C23.1186 41.137 23.182 40.6764 23.182 40.1996C23.182 39.5697 23.0786 38.964 22.8923 38.3956C22.7783 38.0488 22.6346 37.7159 22.4603 37.4003Z" fill="#66A75B"/>
<path d="M48.8504 34.4038C46.0263 34.4038 43.6775 36.4228 43.162 39.096C43.0939 39.4527 43.0547 39.8224 43.0547 40.1995C43.0547 43.4017 45.6491 45.9971 48.8503 45.9971C52.0516 45.9971 54.647 43.4017 54.647 40.1995C54.647 39.8223 54.6078 39.4527 54.5387 39.096C54.0214 36.4228 51.6726 34.4038 48.8504 34.4038Z" fill="#66A75B"/>
</svg>
