<svg width="50" height="44" viewBox="0 0 50 44" fill="none" xmlns="http://www.w3.org/2000/svg">
<path d="M45.3125 0.125H32.8125C30.2246 0.125 28.125 2.22461 28.125 4.8125V17.3125C28.125 19.9004 30.2246 22 32.8125 22H40.625V28.25C40.625 31.6973 37.8223 34.5 34.375 34.5H33.5938C32.2949 34.5 31.25 35.5449 31.25 36.8438V41.5312C31.25 42.8301 32.2949 43.875 33.5938 43.875H34.375C43.0078 43.875 50 36.8828 50 28.25V4.8125C50 2.22461 47.9004 0.125 45.3125 0.125ZM17.1875 0.125H4.6875C2.09961 0.125 0 2.22461 0 4.8125V17.3125C0 19.9004 2.09961 22 4.6875 22H12.5V28.25C12.5 31.6973 9.69727 34.5 6.25 34.5H5.46875C4.16992 34.5 3.125 35.5449 3.125 36.8438V41.5312C3.125 42.8301 4.16992 43.875 5.46875 43.875H6.25C14.8828 43.875 21.875 36.8828 21.875 28.25V4.8125C21.875 2.22461 19.7754 0.125 17.1875 0.125Z" fill="#E8E8E8"/>
</svg>
