<svg width="27" height="20" viewBox="0 0 27 20" fill="none" xmlns="http://www.w3.org/2000/svg">
<path fill-rule="evenodd" clip-rule="evenodd" d="M0 1.9973C0 1.46758 0.203188 0.959562 0.564865 0.584996C0.926543 0.210429 1.41708 0 1.92857 0H25.0714C25.5829 0 26.0735 0.210429 26.4351 0.584996C26.7968 0.959562 27 1.46758 27 1.9973C27 2.52701 26.7968 3.03504 26.4351 3.4096C26.0735 3.78417 25.5829 3.9946 25.0714 3.9946H1.92857C1.41708 3.9946 0.926543 3.78417 0.564865 3.4096C0.203188 3.03504 0 2.52701 0 1.9973Z" fill="#66A75B"/>
<path fill-rule="evenodd" clip-rule="evenodd" d="M0 10C0 9.47028 0.203188 8.96226 0.564865 8.5877C0.926543 8.21313 1.41708 8.0027 1.92857 8.0027H25.0714C25.5829 8.0027 26.0735 8.21313 26.4351 8.5877C26.7968 8.96226 27 9.47028 27 10C27 10.5297 26.7968 11.0377 26.4351 11.4123C26.0735 11.7869 25.5829 11.9973 25.0714 11.9973H1.92857C1.41708 11.9973 0.926543 11.7869 0.564865 11.4123C0.203188 11.0377 0 10.5297 0 10Z" fill="#66A75B"/>
<path fill-rule="evenodd" clip-rule="evenodd" d="M0 18.0027C0 17.473 0.203188 16.965 0.564865 16.5904C0.926543 16.2158 1.41708 16.0054 1.92857 16.0054H25.0714C25.5829 16.0054 26.0735 16.2158 26.4351 16.5904C26.7968 16.965 27 17.473 27 18.0027C27 18.5324 26.7968 19.0404 26.4351 19.415C26.0735 19.7896 25.5829 20 25.0714 20H1.92857C1.41708 20 0.926543 19.7896 0.564865 19.415C0.203188 19.0404 0 18.5324 0 18.0027Z" fill="#66A75B"/>
</svg>
